<svg xmlns="http://www.w3.org/2000/svg" viewBox="0 0 512 512"><path d="M400.213 371.2c.853-2.56 1.707-5.973 0-8.533L263.68 89.6c-3.413-5.973-12.8-5.973-15.36 0L111.787 362.667c-1.707 2.56-1.707 5.973 0 8.533s5.12 4.267 7.68 4.267h273.067c2.559 0 6.826-1.707 7.679-4.267zM133.12 358.4L256 112.64 378.88 358.4H133.12z"/><path d="M247.467 196.267v93.867c0 5.12 3.413 8.533 8.533 8.533s8.533-3.413 8.533-8.533v-93.867c0-5.12-3.413-8.533-8.533-8.533s-8.533 3.413-8.533 8.533zM256 315.733c-5.12 0-8.533 3.413-8.533 8.533S250.88 332.8 256 332.8s8.533-3.413 8.533-8.533-3.413-8.534-8.533-8.534z"/><path d="M256 8.533c-140.8 0-256 115.2-256 256 0 78.424 35.94 150.455 99.316 198.333L87.04 481.28c-1.707 2.56-1.707 5.973-.853 8.533 1.707 2.56 4.267 5.12 6.827 5.12l68.267 8.533h.853c2.56 0 5.12-1.707 7.68-3.413 1.707-3.413 1.707-6.827 0-9.387l-34.133-59.733c-.853-2.56-4.267-4.267-6.827-4.267-3.413-.853-5.973.853-7.68 3.413l-12.339 18.508C50.192 403.42 17.067 337.53 17.067 264.533 17.067 133.12 124.587 25.6 256 25.6s238.933 107.52 238.933 238.933c0 93.867-54.613 179.2-139.947 217.6-4.267 1.707-5.973 6.827-4.267 11.093 1.707 3.413 4.267 5.12 7.68 5.12.853 0 2.56 0 3.413-.853C453.12 456.533 512 364.373 512 264.533c0-140.8-115.2-256-256-256zm-128.853 442.88l18.773 33.28-37.547-5.12 8.298-12.447a9.08 9.08 0 0 0 1.089-1.207 8.61 8.61 0 0 0 1.437-2.582l7.95-11.924z"/></svg>